<svg xmlns="http://www.w3.org/2000/svg" viewBox="0 0 29.15 29.15"><defs><style>.cls-1{fill:#474f59;}.cls-2{fill:#fff;}</style></defs><title>Asset 3</title><g id="Layer_2" data-name="Layer 2"><g id="layer_1-2" data-name="layer 1"><circle class="cls-1" cx="14.57" cy="14.57" r="14.57"/><path class="cls-2" d="M11.87,16.16a.27.27,0,1,1-.27-.27A.27.27,0,0,1,11.87,16.16Z"/><path class="cls-2" d="M19.74,11.75a.28.28,0,0,1-.27-.27.27.27,0,0,1,.27-.27h0a.27.27,0,1,1,0,.54Z"/><path class="cls-2" d="M23.43,11.75h0a.27.27,0,0,1,0-.54h0a.27.27,0,0,1,0,.54Zm-1.23,0h0a.27.27,0,0,1,0-.54h0a.27.27,0,0,1,0,.54Zm-1.23,0h0a.27.27,0,0,1,0-.54h0a.27.27,0,0,1,0,.54Z"/><path class="cls-2" d="M24.65,11.75a.25.25,0,0,1-.25-.16.23.23,0,0,1,0-.11.27.27,0,0,1,.27-.27h0a.27.27,0,0,1,0,.54Z"/><path class="cls-2" d="M24.65,16.11a.27.27,0,0,1-.27-.27.28.28,0,0,1,.27-.28.26.26,0,0,1,.27.26v0A.27.27,0,0,1,24.65,16.11Zm0-1.09a.27.27,0,0,1-.27-.27.28.28,0,0,1,.27-.28.26.26,0,0,1,.27.26v0A.27.27,0,0,1,24.65,15Zm0-1.09a.27.27,0,0,1-.27-.27.28.28,0,0,1,.27-.28.27.27,0,0,1,.27.27h0A.27.27,0,0,1,24.65,13.93Zm0-1.09a.27.27,0,0,1-.27-.27.28.28,0,0,1,.27-.28.27.27,0,0,1,.27.27h0A.27.27,0,0,1,24.65,12.84Z"/><path class="cls-2" d="M24.65,17.19a.27.27,0,0,1-.12-.52.27.27,0,0,1,.39.24h0A.27.27,0,0,1,24.65,17.19Z"/><path class="cls-2" d="M23.47,17.19h0a.27.27,0,1,1,.27-.27A.26.26,0,0,1,23.47,17.19Z"/><path class="cls-2" d="M22.39,17.78a.27.27,0,0,1-.19-.08l-.6-.59a.28.28,0,0,1,0-.38l.6-.59a.26.26,0,0,1,.38,0,.28.28,0,0,1,0,.38l-.4.4.4.4a.28.28,0,0,1,0,.38A.29.29,0,0,1,22.39,17.78Z"/><path class="cls-2" d="M10.76,11.2a1.14,1.14,0,1,1,1.15-1.14A1.15,1.15,0,0,1,10.76,11.2Zm0-1.56a.42.42,0,1,0,.42.42A.41.41,0,0,0,10.76,9.64Z"/><path class="cls-2" d="M14.68,14.16l0,0,0,0v0s0,0,0,0v-.09h0v-.07a0,0,0,0,0,0,0s0,0,0,0h0L13,10.51h0l0,0v0l0,0,0,0h0l0,0h-.34l0,0h0l0,0,0,0v0l0,0h0L11,13.15l-.75-1.52h0a.05.05,0,0,0,0,0l0,0,0,0,0,0h0l0,0H9.76l0,0h0l0,0,0,0,0,0,0,0h0L8.54,13.78h0s0,0,0,0a0,0,0,0,0,0,0v.07h0V14a.06.06,0,0,1,0,0v0l0,0v0l0,0,0,0a0,0,0,0,0,0,0l0,0,0,0,0,0h0l0,0h5.73l.06,0h0l0,0,0,0,0,0Zm-2-2.71,1.11,2.13H11.58ZM9.92,12.61l.49,1h-1Z"/><path class="cls-2" d="M20.37,12.72H17.05a.81.81,0,0,0-.78.84v7a.81.81,0,0,0,.78.84h3.32a.81.81,0,0,0,.78-.84v-7A.81.81,0,0,0,20.37,12.72Zm-3.56,2.11h3.8v4.61h-3.8Zm.24-1.57h3.32a.28.28,0,0,1,.24.3v.73h-3.8v-.73A.28.28,0,0,1,17.05,13.26Zm3.32,7.55H17.05a.27.27,0,0,1-.24-.3V20h3.8v.53A.27.27,0,0,1,20.37,20.81Z"/><path class="cls-2" d="M15.1,18.74H13.22V17.36h3v-.55H5a.24.24,0,0,1-.24-.24v-1.1h11.5v-.54H4.77V8.57A.24.24,0,0,1,5,8.33H18.2a.24.24,0,0,1,.24.24v4.15H19V8.57a.78.78,0,0,0-.78-.78H5a.78.78,0,0,0-.78.78v8a.78.78,0,0,0,.78.79h5v1.38H8.15a.27.27,0,0,0-.27.27v1.13a.27.27,0,0,0,.27.27h7a.27.27,0,0,0,.27-.27V19A.27.27,0,0,0,15.1,18.74Zm-4.53-1.38h2.11v1.38H10.57Zm4.26,2.51H8.42v-.59h6.41Z"/><path class="cls-2" d="M19,20.4a.27.27,0,1,1-.54,0,.27.27,0,0,1,.54,0Z"/><path class="cls-2" d="M18.16,16.69a.71.71,0,1,1,.71-.71A.71.71,0,0,1,18.16,16.69Zm0-.88A.18.18,0,0,0,18,16a.17.17,0,0,0,.34,0A.18.18,0,0,0,18.16,15.81Z"/><path class="cls-2" d="M20.41,18.48l0,0a0,0,0,0,1,0,0,0,0,0,0,0,0,0v-.08h0v-.08s0,0,0,0h0l-.92-1.77h0s0,0,0,0h0l0,0v0h0l0,0h-.25l0,0h0v0l0,0h0s0,0,0,0h0l-.68,1.3L18,17h0l0,0v0l0,0h0l0,0H17.7s0,0,0,0h-.05l0,0h0l0,0v0l0,0h0L17,18.2h0a0,0,0,0,0,0,0v.08h0v.08s0,0,0,0,0,0,0,0l0,0,0,0,0,0h0l0,0h0l0,0h3.14l0,0h0l0,0h0l0,0Zm-1.13-1.35.47.92H18.8Zm-1.5.63.14.29h-.28Z"/><path class="cls-2" d="M19.11,14.06H18.3a.27.27,0,0,1,0-.54h.81a.27.27,0,1,1,0,.54Z"/></g></g></svg>