<svg xmlns="http://www.w3.org/2000/svg" viewBox="0 0 29.15 29.15"><defs><style>.cls-1{fill:#474f59;}.cls-2{fill:#fff;}</style></defs><title>Asset 1</title><g id="Layer_2" data-name="Layer 2"><g id="layer_1-2" data-name="layer 1"><circle class="cls-1" cx="14.57" cy="14.57" r="14.57"/><path class="cls-2" d="M13.43,14.32a.38.38,0,0,1-.38-.38V12.09A1.09,1.09,0,0,0,12,11H8.86a1.09,1.09,0,0,0-1.09,1.09v1.85a.39.39,0,0,1-.77,0V12.09a1.86,1.86,0,0,1,1.86-1.86H12a1.85,1.85,0,0,1,1.85,1.86v1.85A.38.38,0,0,1,13.43,14.32Z"/><path class="cls-2" d="M16.59,9.05H15.5a.29.29,0,0,1-.29-.29V7.88a.29.29,0,0,1,.29-.29h1.09a.29.29,0,0,1,.29.29v.88A.29.29,0,0,1,16.59,9.05Zm-.8-.58h.52V8.16h-.52Z"/><path class="cls-2" d="M19.15,9.05H18.06a.29.29,0,0,1-.29-.29V7.88a.29.29,0,0,1,.29-.29h1.09a.29.29,0,0,1,.29.29v.88A.29.29,0,0,1,19.15,9.05Zm-.8-.58h.52V8.16h-.52Z"/><path class="cls-2" d="M19.15,10H15.5a.29.29,0,0,1-.29-.29.28.28,0,0,1,.29-.28h3.65a.28.28,0,0,1,.29.28A.29.29,0,0,1,19.15,10Z"/><path class="cls-2" d="M15.76,10.73a.26.26,0,0,1-.26.26.27.27,0,1,1,0-.53A.26.26,0,0,1,15.76,10.73Z"/><path class="cls-2" d="M17.37,11H16.29a.29.29,0,0,1,0-.58h1.08a.29.29,0,1,1,0,.58Z"/><path class="cls-2" d="M15.76,11.71a.26.26,0,0,1-.26.27.27.27,0,0,1,0-.54A.26.26,0,0,1,15.76,11.71Z"/><path class="cls-2" d="M17.37,12H16.29a.29.29,0,1,1,0-.57h1.08a.29.29,0,1,1,0,.57Z"/><path class="cls-2" d="M20.78,15.05a.82.82,0,0,1-.31-.07L19,14.22a.72.72,0,0,1-.35-.4.65.65,0,0,1,0-.53l.29-.58a.67.67,0,0,1,.93-.31l1.51.76a.7.7,0,0,1,.31.93l-.29.58A.69.69,0,0,1,20.78,15.05ZM19.56,12.9a.13.13,0,0,0-.11.06l-.29.58a.19.19,0,0,0,0,.1.16.16,0,0,0,.06.06l1.52.76a.11.11,0,0,0,.16-.05l.29-.58a.13.13,0,0,0-.05-.16l-1.52-.76Z"/><path class="cls-2" d="M21.71,16.66a.28.28,0,0,1-.13,0l-3.43-1.72a.27.27,0,0,1-.12-.38.28.28,0,0,1,.38-.13l3.43,1.72a.27.27,0,0,1,.12.38A.28.28,0,0,1,21.71,16.66Z"/><path class="cls-2" d="M21.32,17.43a.27.27,0,0,1-.12,0l-3.43-1.72a.29.29,0,1,1,.26-.51l3.42,1.71a.3.3,0,0,1,.13.39A.29.29,0,0,1,21.32,17.43Z"/><path class="cls-2" d="M20.94,18.19a.27.27,0,0,1-.13,0l-3.43-1.72a.28.28,0,0,1-.12-.39.27.27,0,0,1,.38-.12l3.43,1.71a.29.29,0,0,1,.13.39A.29.29,0,0,1,20.94,18.19Z"/><path class="cls-2" d="M17.39,19.15a1,1,0,0,1-.46-.11,1,1,0,0,1,.46-2,1.08,1.08,0,0,1,.47.11,1,1,0,0,1,.52.6,1,1,0,0,1-.06.79A1,1,0,0,1,17.39,19.15Zm0-1.51a.46.46,0,0,0-.41.26.43.43,0,0,0,0,.35.44.44,0,0,0,.23.27.47.47,0,0,0,.63-.2.5.5,0,0,0,0-.36.49.49,0,0,0-.24-.27A.46.46,0,0,0,17.39,17.64Z"/><path class="cls-2" d="M19.47,20.19a1.07,1.07,0,0,1-.46-.11,1,1,0,0,1-.46-1.39,1,1,0,0,1,.92-.58,1.08,1.08,0,0,1,.47.11,1,1,0,0,1,.46,1.4A1,1,0,0,1,19.47,20.19Zm0-1.5a.45.45,0,0,0-.41.25.47.47,0,0,0,.21.63.47.47,0,0,0,.41-.84A.46.46,0,0,0,19.47,18.69Z"/><path class="cls-2" d="M7.39,19.52A1.12,1.12,0,1,1,8.5,18.4,1.12,1.12,0,0,1,7.39,19.52Zm0-1.65a.54.54,0,1,0,.53.53A.54.54,0,0,0,7.39,17.87Z"/><path class="cls-2" d="M13.43,19.52a1.12,1.12,0,1,1,1.11-1.12A1.12,1.12,0,0,1,13.43,19.52Zm0-1.65a.54.54,0,1,0,.54.53A.54.54,0,0,0,13.43,17.87Z"/><path class="cls-2" d="M12.36,18.69a.92.92,0,0,1,0-.29.9.9,0,0,1,0-.28H8.46a1,1,0,0,1,0,.57Z"/><path class="cls-2" d="M15.47,13.19H5.35a.68.68,0,0,0-.7.66V18a.68.68,0,0,0,.64.66,1,1,0,0,0,0,.26v1.34a.83.83,0,0,0,.83.83h8.66a.83.83,0,0,0,.83-.83V19a.71.71,0,0,0-.05-.26.68.68,0,0,0,.65-.66V13.85A.68.68,0,0,0,15.47,13.19ZM15.59,18a.11.11,0,0,1-.12.09h-1a1.33,1.33,0,0,1,0,.28,1.36,1.36,0,0,1,0,.29h.23A.26.26,0,0,1,15,19v1.34a.25.25,0,0,1-.25.25H6.08a.26.26,0,0,1-.26-.25V19a.26.26,0,0,1,.26-.26h.23a1,1,0,0,1,0-.57h-1c-.08,0-.13-.05-.13-.09V13.85s0-.09.13-.09H6.62V17.6a1.07,1.07,0,0,1,.57-.29V13.76h.39v3.55a1.14,1.14,0,0,1,.58.29V13.76h4.5V17.6a1.14,1.14,0,0,1,.58-.29V13.76h.39v3.55a1.07,1.07,0,0,1,.57.29V13.76h1.27a.11.11,0,0,1,.12.09Z"/><path class="cls-2" d="M24.48,13.51a.27.27,0,0,0-.14-.17l-5.2-2.6a.29.29,0,0,0-.39.13L16.17,16V17.3l3-5.92,4.68,2.35-4.11,8.2-4.14-2.07v.43a.69.69,0,0,1,0,.2l4.17,2.08a.19.19,0,0,0,.13,0,.28.28,0,0,0,.26-.16l4.37-8.71A.33.33,0,0,0,24.48,13.51Z"/><path class="cls-2" d="M20,11.14l.57.29V6.83a.29.29,0,0,0-.29-.29H14.42a.29.29,0,0,0-.29.29v6.36h.57V7.12H20Z"/></g></g></svg>