<svg xmlns="http://www.w3.org/2000/svg" viewBox="0 0 29.15 29.15"><defs><style>.cls-1{fill:#474f59;}.cls-2{fill:#fff;}</style></defs><title>Asset 2</title><g id="Layer_2" data-name="Layer 2"><g id="layer_1-2" data-name="layer 1"><circle class="cls-1" cx="14.57" cy="14.57" r="14.57"/><path class="cls-2" d="M23.17,7.1,22.05,6a.83.83,0,0,0-.59-.25.85.85,0,0,0-.59.24l-.64.64h0l-1.1,1.11L7.22,19.63s0,0,0,0h0a.09.09,0,0,0,0,.06h0L5.76,23a.29.29,0,0,0,.06.33.32.32,0,0,0,.21.08.25.25,0,0,0,.12,0L9.42,22a.18.18,0,0,0,.09-.06h0L21.43,10h0l1.1-1.11h0l.63-.64a.76.76,0,0,0,.24-.59A.83.83,0,0,0,23.17,7.1ZM19.34,8.35l.51.52L8.37,20.35l-.52-.51ZM6.6,22.55l.93-2.19,1.25,1.26ZM9.31,21.3l-.52-.52L20.28,9.29l.51.52ZM21.22,9.38,19.76,7.93l.68-.68L21.9,8.7Zm1.53-1.53-.43.43L20.87,6.82l.42-.43a.26.26,0,0,1,.34,0l1.12,1.12a.26.26,0,0,1,.07.17A.24.24,0,0,1,22.75,7.85Z"/><polygon class="cls-2" points="16.19 11.5 18.8 8.89 18.8 8.89 16.19 11.5 16.19 11.5"/><path class="cls-2" d="M13,12.24a2.82,2.82,0,0,1,2-.82,3,3,0,0,1,.42,0l1.1-1.11-.6.6a3.52,3.52,0,0,0-.92-.12,3.39,3.39,0,0,0-3.27,4.31l.5-.5A2.8,2.8,0,0,1,13,12.24Z"/><path class="cls-2" d="M17,16.22A2.76,2.76,0,0,1,15,17a3.05,3.05,0,0,1-.52-.05l-.49.49a3.48,3.48,0,0,0,1,.15,3.39,3.39,0,0,0,2.41-1,3.43,3.43,0,0,0,.84-3.42l-.49.49A2.83,2.83,0,0,1,17,16.22Z"/><path class="cls-2" d="M7.5,15.75l2.39.38a2.75,2.75,0,0,0,.15.36l-.85,1.16,1.4-1.39c-.08-.17-.14-.33-.2-.49a.27.27,0,0,0-.23-.2l-2.35-.38a6.86,6.86,0,0,1,0-1.92l2.35-.38a.27.27,0,0,0,.23-.2c.08-.21.16-.42.26-.62a.29.29,0,0,0,0-.31L9.23,9.84a7.33,7.33,0,0,1,.63-.73,8.93,8.93,0,0,1,.73-.63l1.92,1.4a.31.31,0,0,0,.31,0,6.1,6.1,0,0,1,.62-.26.27.27,0,0,0,.2-.23L14,7.06a6.86,6.86,0,0,1,1.92,0l.38,2.35a.27.27,0,0,0,.2.23,4.16,4.16,0,0,1,.44.24L18.34,8.5l-.94.95-.09-.06-.43-.24-.38-2.4a.3.3,0,0,0-.25-.25,7.73,7.73,0,0,0-2.54,0,.3.3,0,0,0-.25.25l-.38,2.39-.36.15-2-1.42a.29.29,0,0,0-.35,0,7.91,7.91,0,0,0-1.8,1.79.3.3,0,0,0,0,.35L10,12a2.75,2.75,0,0,0-.15.36l-2.39.38a.3.3,0,0,0-.25.25,7.73,7.73,0,0,0,0,2.54A.3.3,0,0,0,7.5,15.75Z"/><path class="cls-2" d="M22.46,12.71l-2.41-.38a3.65,3.65,0,0,0-.26-.45l-.09-.14-.43.44,0,0a3.73,3.73,0,0,1,.27.49.29.29,0,0,0,.24.2l2.35.38a6.86,6.86,0,0,1,0,1.92l-2.35.38a.27.27,0,0,0-.23.2,6.1,6.1,0,0,1-.26.62.31.31,0,0,0,0,.31l1.4,1.92a8.93,8.93,0,0,1-.63.73,7.16,7.16,0,0,1-.73.63l-1.92-1.4a.31.31,0,0,0-.31,0,6.32,6.32,0,0,1-.63.26.27.27,0,0,0-.19.23l-.38,2.35a7.26,7.26,0,0,1-1.92,0l-.38-2.35a.27.27,0,0,0-.2-.23,4.87,4.87,0,0,1-.57-.24L11.1,20.35l1.62-1.18a2.75,2.75,0,0,0,.36.15l.38,2.39a.3.3,0,0,0,.25.25,7.59,7.59,0,0,0,1.27.1,7.77,7.77,0,0,0,1.27-.1.3.3,0,0,0,.25-.25l.38-2.39.36-.15,2,1.42a.29.29,0,0,0,.35,0,8.26,8.26,0,0,0,1-.82,7.52,7.52,0,0,0,.82-1,.29.29,0,0,0,0-.35l-1.42-2q.07-.16.15-.36l2.39-.38a.31.31,0,0,0,.25-.25,7.73,7.73,0,0,0,0-2.54A.3.3,0,0,0,22.46,12.71Z"/><polygon class="cls-2" points="20.25 10.35 18.25 12.36 20.26 10.35 20.25 10.35"/></g></g></svg>